<svg width="265" height="78" viewBox="0 0 265 78" fill="none" xmlns="http://www.w3.org/2000/svg">
<path fill-rule="evenodd" clip-rule="evenodd" d="M38.1356 29.008C53.3073 14.0833 93.6424 -8.54944 133.609 20.3178C140.477 23.6624 156.746 27.7392 166.88 17.2894C179.547 4.22723 234.888 -12.7192 254.433 17.7267L254.433 17.7278C256.825 16.1909 261.749 12.5069 262.5 7.99999L265 42C264.836 43.9652 261.326 48.9233 256.27 51.3722C244.756 61.0393 214.516 75.7542 176.243 64.074C168.369 60.3539 149.678 55.8438 137.909 67.5632C123.252 82.159 51.2367 79.0263 41.9662 70.0987L42 70.5C14 58.1 2.33333 44.6667 0 39.5V21.5C7.50654 29.7967 28.3132 29.9963 38.1382 29.0364L38.1356 29.008ZM59.1402 44.1698C78.2579 34.6082 119.248 22.5888 130.265 51.0039C116.059 61.2859 81.9447 74.3138 59.1402 44.1698ZM179.05 47.9643C185.831 34.6227 208.472 14.2573 244.788 39.5292C236.841 52.043 212.569 71.2494 179.05 47.9643Z" fill="#FFFEFE"/>
</svg>
