<svg width="299" height="104" viewBox="0 0 299 104" fill="none" xmlns="http://www.w3.org/2000/svg">
<path fill-rule="evenodd" clip-rule="evenodd" d="M0 25.624C22.7427 6.28752 81.0711 -20.7835 132.443 25.624C141.473 31.2916 163.346 39.2262 178.597 25.624C197.661 8.62124 275.923 -8.38152 299 37.6259V84.6335C283.281 96.9689 238.598 116.039 185.621 93.635C175.253 87.3006 150.102 78.4325 132.443 93.635C110.369 112.638 11.0369 98.6358 0 84.6335V25.624ZM27 50C54.5 38.8333 112.4 27 124 69C103.167 81.8333 54.6 96 27 50ZM191.5 71C202.5 52.8333 236.2 26.7 283 67.5C270.5 84.3333 234.7 108.6 191.5 71Z" fill="white"/>
</svg>
